<?xml version="1.0" encoding="utf-8"?>
<!-- Generator: Adobe Illustrator 20.0.0, SVG Export Plug-In . SVG Version: 6.00 Build 0)  -->
<svg version="1.1" id="Layer_1" xmlns="http://www.w3.org/2000/svg" xmlns:xlink="http://www.w3.org/1999/xlink" x="0px" y="0px"
	 viewBox="0 0 164.2 103.1" style="enable-background:new 0 0 164.2 103.1;" xml:space="preserve">
<style type="text/css">
	.st0{display:none;}
	.st1{display:inline;fill:#1E7DD3;}
	.st2{display:inline;fill:#FFFFFF;}
	.st3{display:inline;fill:#2B354C;}
	.st4{display:inline;fill:#D9222A;}
	.st5{display:inline;fill:#EE9F2D;}
	.st6{display:inline;}
	.st7{fill:#0E4595;}
	.st8{fill:#FFFFFF;}
	.st9{fill:#F2AE14;}
</style>
<g class="st0">
	<path class="st1" d="M8.8,0h146.6c4.8,0,8.8,3.9,8.8,8.8v85.5c0,4.8-3.9,8.8-8.8,8.8H8.8c-4.8,0-8.8-3.9-8.8-8.8V8.8
		C0.1,4,4,0,8.8,0z"/>
	<path class="st2" d="M0.1,48.4H8l1.8-4.3h4l1.8,4.3H31v-3.3l1.4,3.3h8l1.4-3.3v3.3h38.5l0-7h0.7c0.5,0,0.7,0.1,0.7,0.9v6.1h19.9
		v-1.6c1.6,0.9,4.1,1.6,7.4,1.6h8.4l1.8-4.3h4l1.8,4.3h16.2v-4.1l2.4,4.1h12.9V21.6h-12.8v3.2l-1.8-3.2h-13.1v3.2l-1.6-3.2h-17.8
		c-3,0-5.6,0.4-7.7,1.6v-1.6H89.4v1.6c-1.3-1.2-3.2-1.6-5.2-1.6H39.4l-3,6.9l-3.1-6.9H19.2v3.2l-1.5-3.2h-12L0.1,34.4L0.1,48.4
		L0.1,48.4z M49.8,44.6h-4.7l0-15l-6.7,15h-4l-6.7-15.1v15.1h-9.4l-1.8-4.3H6.9l-1.8,4.3h-5l8.3-19.2h6.9L23,43.5V25.3h7.5l6,13
		l5.5-13h7.7L49.8,44.6L49.8,44.6L49.8,44.6z M14.9,36.3l-3.2-7.7l-3.1,7.7H14.9z M68.6,44.6H53.2V25.3h15.4v4H57.8v3.5h10.5v3.9
		H57.8v3.8h10.8L68.6,44.6L68.6,44.6z M90.4,30.5c0,3.1-2.1,4.6-3.2,5.1c1,0.4,1.9,1.1,2.3,1.6c0.7,1,0.8,1.8,0.8,3.5v3.8h-4.7
		l0-2.4c0-1.2,0.1-2.8-0.7-3.7c-0.7-0.7-1.7-0.8-3.4-0.8h-5v7h-4.6V25.3h10.6c2.4,0,4.1,0.1,5.6,0.9C89.5,27.1,90.4,28.4,90.4,30.5
		L90.4,30.5z M84.5,33.4c-0.6,0.4-1.4,0.4-2.3,0.4h-5.6v-4.3h5.7c0.8,0,1.6,0,2.2,0.3c0.6,0.3,1,0.9,1,1.7
		C85.5,32.4,85.1,33.1,84.5,33.4L84.5,33.4z M97.8,44.6H93V25.3h4.7L97.8,44.6L97.8,44.6z M152.4,44.6h-6.5l-8.7-14.4v14.4h-9.4
		l-1.8-4.3h-9.6l-1.7,4.3h-5.4c-2.2,0-5.1-0.5-6.7-2.1c-1.6-1.6-2.5-3.8-2.5-7.3c0-2.8,0.5-5.5,2.5-7.5c1.5-1.5,3.8-2.2,7-2.2h4.5
		v4.1h-4.4c-1.7,0-2.6,0.2-3.5,1.1c-0.8,0.8-1.3,2.3-1.3,4.4c0,2.1,0.4,3.5,1.3,4.5c0.7,0.8,2,1,3.2,1h2.1l6.5-15.1h6.9l7.8,18.2
		V25.3h7l8.1,13.4V25.3h4.7L152.4,44.6L152.4,44.6z M124.4,36.3l-3.2-7.7l-3.2,7.7L124.4,36.3L124.4,36.3z M164.1,75.2
		c-1.1,1.6-3.3,2.5-6.3,2.5H149v-4.1h8.9c0.9,0,1.5-0.1,1.9-0.5c0.3-0.3,0.5-0.7,0.5-1.3c0-0.6-0.2-1-0.6-1.3
		c-0.3-0.3-0.8-0.4-1.6-0.4c-4.3-0.1-9.7,0.1-9.7-5.9c0-2.8,1.8-5.7,6.6-5.7h9.2v-3.8h-8.5c-2.6,0-4.4,0.6-5.8,1.6v-1.6h-12.6
		c-2,0-4.4,0.5-5.5,1.6v-1.6h-22.5v1.6c-1.8-1.3-4.8-1.6-6.2-1.6H88.1v1.6c-1.4-1.4-4.6-1.6-6.5-1.6H64.9l-3.8,4.1l-3.6-4.1H32.7
		v26.8h24.4l3.9-4.2l3.7,4.2l15,0v-6.3h1.5c2,0,4.3,0,6.4-0.9v7.2H100v-7h0.6c0.8,0,0.8,0,0.8,0.8v6.2h37.7c2.4,0,4.9-0.6,6.3-1.7
		v1.7h12c2.5,0,4.9-0.3,6.8-1.2L164.1,75.2L164.1,75.2z M89.4,64.9c0,5.3-4,6.4-8,6.4h-5.8v6.4h-9L61,71.5l-5.9,6.4H36.8V58.6h18.6
		l5.7,6.3l5.9-6.3h14.7C85.3,58.6,89.4,59.6,89.4,64.9z M52.8,73.8H41.4v-3.8h10.1V66H41.4v-3.5H53l5,5.6L52.8,73.8L52.8,73.8z
		 M71,76L64,68.1l7.1-7.6V76L71,76z M81.5,67.4h-6v-4.9h6c1.7,0,2.8,0.7,2.8,2.4C84.4,66.6,83.3,67.4,81.5,67.4L81.5,67.4z
		 M112.7,58.6h15.4v4h-10.8v3.5h10.5V70h-10.5v3.8l10.8,0v4h-15.4V58.6L112.7,58.6z M106.8,68.9c1,0.4,1.9,1.1,2.3,1.6
		c0.7,0.9,0.7,1.8,0.8,3.5v3.8h-4.6v-2.4c0-1.2,0.1-2.9-0.7-3.8c-0.7-0.7-1.7-0.9-3.4-0.9h-4.9v7h-4.6V58.6h10.6
		c2.3,0,4,0.1,5.6,0.9c1.5,0.9,2.4,2.1,2.4,4.3C110.1,66.8,108,68.4,106.8,68.9L106.8,68.9z M104.2,66.5c-0.6,0.4-1.4,0.4-2.3,0.4
		h-5.6v-4.3h5.7c0.8,0,1.6,0,2.2,0.3c0.6,0.3,1,0.9,1,1.7C105.2,65.4,104.8,66.1,104.2,66.5L104.2,66.5z M145.8,67.7
		c0.9,0.9,1.4,2.1,1.4,4.1c0,4.1-2.6,6.1-7.2,6.1h-9v-4.1h8.9c0.9,0,1.5-0.1,1.9-0.5c0.3-0.3,0.5-0.7,0.5-1.3c0-0.6-0.2-1-0.6-1.3
		c-0.4-0.3-0.8-0.4-1.6-0.4c-4.3-0.1-9.7,0.1-9.7-5.9c0-2.8,1.8-5.7,6.6-5.7h9.2v4.1h-8.5c-0.8,0-1.4,0-1.8,0.3
		c-0.5,0.3-0.7,0.8-0.7,1.4c0,0.7,0.4,1.2,1,1.4c0.5,0.2,1,0.2,1.8,0.2l2.5,0.1C143.1,66.2,144.8,66.6,145.8,67.7L145.8,67.7z
		 M164.2,62.5h-8.4c-0.8,0-1.4,0-1.9,0.3c-0.5,0.3-0.7,0.8-0.7,1.4c0,0.7,0.4,1.2,1,1.4c0.5,0.2,1,0.2,1.8,0.2l2.5,0.1
		c2.5,0.1,4.2,0.5,5.2,1.5c0.2,0.1,0.3,0.3,0.4,0.5L164.2,62.5L164.2,62.5z"/>
</g>
<g class="st0">
	<path class="st3" d="M8.8,0h146.6c4.8,0,8.8,3.9,8.8,8.8v85.6c0,4.8-3.9,8.8-8.8,8.8H8.8c-4.8,0-8.8-3.9-8.8-8.8V8.8
		C0,4,3.9,0,8.8,0z"/>
	<path class="st4" d="M95,51.6c0,21.7-17.6,39.3-39.3,39.3S16.4,73.3,16.4,51.6c0-21.7,17.6-39.3,39.3-39.3
		C77.4,12.3,95,29.9,95,51.6"/>
	<path class="st5" d="M108.4,12.3c-10.2,0-19.4,3.9-26.4,10.2c-1.4,1.3-2.7,2.7-4,4.2H86c1.1,1.3,2.1,2.7,3,4.2H75.1
		c-0.8,1.3-1.6,2.7-2.3,4.2h18.5c0.6,1.3,1.2,2.7,1.7,4.2H71.2c-0.5,1.4-0.8,2.7-1.1,4.2h24.1c0.6,2.7,0.9,5.5,0.9,8.3
		c0,4.4-0.7,8.6-2,12.5H71.2c0.5,1.4,1,2.8,1.7,4.2h18.5c-0.7,1.4-1.4,2.8-2.3,4.2H75.1c0.9,1.5,1.9,2.8,3,4.2H86
		c-1.2,1.5-2.5,2.9-4,4.2c7,6.3,16.2,10.2,26.4,10.2c21.7,0,39.3-17.6,39.3-39.3C147.7,29.9,130.1,12.3,108.4,12.3"/>
	<path class="st6" d="M142.5,73.5c0-0.7,0.6-1.3,1.3-1.3c0.7,0,1.3,0.6,1.3,1.3c0,0.7-0.6,1.3-1.3,1.3
		C143.1,74.7,142.5,74.2,142.5,73.5L142.5,73.5z M143.8,74.4c0.5,0,1-0.4,1-1c0-0.5-0.4-1-1-1c-0.5,0-1,0.4-1,1
		C142.8,74,143.2,74.4,143.8,74.4L143.8,74.4z M143.6,74h-0.3v-1.1h0.5c0.1,0,0.2,0,0.3,0.1c0.1,0.1,0.1,0.2,0.1,0.3
		c0,0.1-0.1,0.2-0.2,0.3l0.2,0.5h-0.3l-0.2-0.4h-0.2L143.6,74L143.6,74z M143.6,73.4h0.1c0.1,0,0.1,0,0.2,0c0,0,0.1-0.1,0.1-0.1
		c0,0,0-0.1-0.1-0.1c0,0-0.1,0-0.2,0h-0.1L143.6,73.4L143.6,73.4z M46.5,55.9c-0.4-0.1-0.6-0.1-1-0.1c-2.4,0-3.6,0.8-3.6,2.5
		c0,1,0.6,1.7,1.5,1.7C45.2,59.9,46.5,58.3,46.5,55.9L46.5,55.9z M49.6,63.1h-3.5l0.1-1.7c-1.1,1.3-2.5,2-4.5,2
		c-2.3,0-3.9-1.8-3.9-4.4c0-3.9,2.8-6.2,7.5-6.2c0.5,0,1.1,0,1.7,0.1c0.1-0.5,0.2-0.8,0.2-1.1c0-1.1-0.7-1.5-2.7-1.5
		c-2.1,0-3.8,0.5-4.5,0.7c0-0.3,0.6-3.6,0.6-3.6c2.1-0.6,3.5-0.9,5.1-0.9c3.7,0,5.6,1.6,5.6,4.8c0,0.8-0.1,1.9-0.3,3.2
		C50.5,56.8,49.7,61.9,49.6,63.1L49.6,63.1z M36,63.1h-4.3l2.4-15.3l-5.5,15.3h-2.9l-0.4-15.2l-2.6,15.2h-4l3.3-19.9h6.1l0.4,11.2
		l3.7-11.2h6.8L36,63.1 M113.7,55.9c-0.4-0.1-0.6-0.1-1-0.1c-2.4,0-3.6,0.8-3.6,2.5c0,1,0.6,1.7,1.5,1.7
		C112.4,59.9,113.6,58.3,113.7,55.9L113.7,55.9z M116.8,63.1h-3.5l0.1-1.7c-1.1,1.3-2.5,2-4.5,2c-2.3,0-3.9-1.8-3.9-4.4
		c0-3.9,2.8-6.2,7.5-6.2c0.5,0,1.1,0,1.7,0.1c0.1-0.5,0.2-0.8,0.2-1.1c0-1.1-0.7-1.5-2.7-1.5c-2.1,0-3.8,0.5-4.5,0.7
		c0-0.3,0.6-3.6,0.6-3.6c2.1-0.6,3.5-0.9,5.1-0.9c3.7,0,5.6,1.6,5.6,4.8c0,0.8-0.1,1.9-0.3,3.2C117.7,56.8,116.9,61.9,116.8,63.1
		L116.8,63.1z M68.6,62.9c-1.2,0.4-2.1,0.5-3.1,0.5c-2.2,0-3.4-1.3-3.4-3.6c0-0.7,0.3-2.6,0.6-4.3c0.2-1.5,1.8-11.1,1.8-11.1h4.2
		l-0.5,2.5h2.6l-0.6,3.9h-2.6c-0.5,3.1-1.2,6.9-1.2,7.4c0,0.8,0.4,1.2,1.5,1.2c0.5,0,0.9,0,1.1-0.2L68.6,62.9 M81.6,62.7
		c-1.5,0.4-2.9,0.7-4.4,0.7c-4.7,0-7.2-2.5-7.2-7.2c0-5.5,3.1-9.6,7.4-9.6c3.5,0,5.7,2.3,5.7,5.9c0,1.2-0.2,2.3-0.5,4h-8.4
		c-0.3,2.4,1.2,3.3,3.7,3.3c1.5,0,2.9-0.3,4.4-1L81.6,62.7L81.6,62.7z M79.2,53.1c0-0.3,0.4-2.9-2-2.9c-1.4,0-2.3,1-2.7,2.9H79.2
		L79.2,53.1z M52.2,52c0,2.1,1,3.5,3.2,4.5c1.7,0.8,2,1.1,2,1.8c0,1-0.8,1.5-2.4,1.5c-1.3,0-2.5-0.2-3.8-0.6c0,0-0.6,3.6-0.6,3.7
		c1,0.2,1.8,0.4,4.4,0.5c4.5,0,6.6-1.7,6.6-5.4c0-2.2-0.9-3.5-3-4.5c-1.8-0.8-2-1-2-1.8c0-0.9,0.7-1.3,2.1-1.3c0.8,0,2,0.1,3.1,0.2
		l0.6-3.8c-1.1-0.2-2.8-0.3-3.8-0.3C53.8,46.5,52.2,49,52.2,52 M102.3,47c1.2,0,2.3,0.3,3.8,1.1l0.7-4.3c-0.6-0.2-2.8-1.7-4.7-1.7
		c-2.9,0-5.3,1.4-7,3.8c-2.5-0.8-3.5,0.8-4.7,2.5l-1.1,0.3c0.1-0.5,0.2-1.1,0.1-1.6h-3.9C85,51.9,84.1,57,83.3,62l-0.2,1.1h4.3
		c0.7-4.6,1.1-7.6,1.3-9.6l1.6-0.9c0.2-0.9,1-1.2,2.5-1.2c-0.2,1.1-0.3,2.2-0.3,3.3c0,5.3,2.9,8.6,7.5,8.6c1.2,0,2.2-0.2,3.8-0.6
		l0.8-4.5c-1.4,0.7-2.6,1-3.6,1c-2.5,0-4-1.8-4-4.9C96.9,50,99.1,47,102.3,47"/>
	<path class="st2" d="M37.3,61.9H33l2.4-15.3L30,61.9h-2.9l-0.4-15.2l-2.6,15.2h-4L23.5,42h6.1l0.2,12.3L33.9,42h6.6L37.3,61.9"/>
	<path class="st6" d="M138.4,43.2l-0.9,5.8c-1.2-1.5-2.4-2.6-4.1-2.6c-2.2,0-4.1,1.6-5.4,4c-1.8-0.4-3.6-1-3.6-1l0,0
		c0.1-1.3,0.2-2.2,0.2-2.4h-3.9c-0.5,5-1.5,10.1-2.2,15.1l-0.2,1.1h4.3c0.6-3.7,1-6.8,1.3-9.3c1.5-1.3,2.2-2.5,3.7-2.4
		c-0.7,1.6-1,3.4-1,5.3c0,4.1,2,6.7,5.2,6.7c1.6,0,2.8-0.5,3.9-1.8l-0.2,1.5h4l3.2-19.9L138.4,43.2L138.4,43.2z M133.1,59.4
		c-1.5,0-2.2-1.1-2.2-3.2c0-3.2,1.4-5.4,3.3-5.4c1.5,0,2.3,1.1,2.3,3.2C136.5,57.1,135.1,59.4,133.1,59.4L133.1,59.4z"/>
	<path class="st2" d="M47.8,54.7c-0.4-0.1-0.6-0.1-1-0.1c-2.4,0-3.6,0.8-3.6,2.5c0,1,0.6,1.7,1.5,1.7C46.4,58.8,47.7,57.1,47.8,54.7
		L47.8,54.7z M50.9,61.9h-3.5l0.1-1.7c-1.1,1.3-2.5,2-4.5,2c-2.3,0-3.9-1.8-3.9-4.4c0-3.9,2.8-6.2,7.5-6.2c0.5,0,1.1,0,1.7,0.1
		c0.1-0.5,0.2-0.8,0.2-1.1c0-1.1-0.7-1.5-2.7-1.5c-2.1,0-3.8,0.5-4.5,0.7c0-0.3,0.6-3.6,0.6-3.6c2.1-0.6,3.5-0.9,5.1-0.9
		c3.7,0,5.6,1.6,5.6,4.8c0,0.8-0.1,1.9-0.3,3.2C51.8,55.7,51,60.7,50.9,61.9L50.9,61.9z M108.1,42.5l-0.7,4.3
		c-1.5-0.8-2.6-1.1-3.8-1.1c-3.2,0-5.4,3.1-5.4,7.5c0,3,1.5,4.9,4,4.9c1.1,0,2.2-0.3,3.6-1l-0.7,4.5c-1.6,0.4-2.6,0.6-3.8,0.6
		c-4.6,0-7.5-3.3-7.5-8.6c0-7.1,4-12.1,9.6-12.1C105.2,41.5,107.4,42.3,108.1,42.5 M114.9,54.7c-0.4-0.1-0.6-0.1-1-0.1
		c-2.4,0-3.6,0.8-3.6,2.5c0,1,0.6,1.7,1.5,1.7C113.6,58.8,114.9,57.1,114.9,54.7L114.9,54.7z M118,61.9h-3.5l0.1-1.7
		c-1.1,1.3-2.5,2-4.5,2c-2.3,0-3.9-1.8-3.9-4.4c0-3.9,2.8-6.2,7.5-6.2c0.5,0,1.1,0,1.7,0.1c0.1-0.5,0.2-0.8,0.2-1.1
		c0-1.1-0.7-1.5-2.7-1.5c-2.1,0-3.8,0.5-4.5,0.7c0-0.3,0.6-3.6,0.6-3.6c2.1-0.6,3.5-0.9,5.1-0.9c3.7,0,5.6,1.6,5.6,4.8
		c0,0.8-0.1,1.9-0.3,3.2C118.9,55.7,118.1,60.7,118,61.9L118,61.9z M69.8,61.7c-1.2,0.4-2.1,0.5-3.1,0.5c-2.2,0-3.4-1.3-3.4-3.6
		c0-0.7,0.3-2.6,0.6-4.3c0.2-1.5,1.8-11.1,1.8-11.1H70l-0.5,2.5h2.2l-0.6,3.9H69c-0.5,3.1-1.2,6.9-1.2,7.4c0,0.8,0.4,1.2,1.5,1.2
		c0.5,0,0.9,0,1.1-0.2L69.8,61.7 M82.8,61.5c-1.5,0.4-2.9,0.7-4.4,0.7c-4.7,0-7.2-2.5-7.2-7.2c0-5.5,3.1-9.6,7.4-9.6
		c3.5,0,5.7,2.3,5.7,5.9c0,1.2-0.2,2.3-0.5,4h-8.4c-0.3,2.4,1.2,3.3,3.7,3.3c1.5,0,2.9-0.3,4.4-1L82.8,61.5L82.8,61.5z M80.4,51.9
		c0-0.3,0.5-2.9-2-2.9c-1.3,0-2.3,1-2.7,2.9H80.4z M53.4,50.8c0,2,1,3.5,3.2,4.5c1.7,0.8,2,1.1,2,1.8c0,1-0.8,1.5-2.4,1.5
		c-1.3,0-2.5-0.2-3.8-0.6c0,0-0.6,3.6-0.6,3.7c1,0.2,1.8,0.4,4.4,0.5c4.5,0,6.6-1.7,6.6-5.4c0-2.2-0.9-3.5-3-4.5c-1.8-0.8-2-1-2-1.8
		c0-0.9,0.7-1.3,2.1-1.3c0.8,0,2,0.1,3.1,0.2l0.6-3.8c-1.1-0.2-2.8-0.3-3.8-0.3C55,45.4,53.4,47.8,53.4,50.8 M140.6,61.9h-4l0.2-1.5
		c-1.2,1.3-2.4,1.8-3.9,1.8c-3.1,0-5.1-2.7-5.1-6.7c0-5.4,3.2-9.9,6.9-9.9c1.7,0,2.9,0.7,4.1,2.2l0.9-5.8h4.2L140.6,61.9L140.6,61.9
		z M134.3,58.2c2,0,3.4-2.3,3.4-5.5c0-2.1-0.8-3.2-2.3-3.2c-1.9,0-3.3,2.3-3.3,5.4C132.1,57.1,132.9,58.2,134.3,58.2L134.3,58.2z
		 M121.9,45.7c-0.5,5-1.5,10.1-2.2,15.1l-0.2,1.1h4.3c1.5-9.9,1.9-11.8,4.3-11.6c0.4-2,1.1-3.8,1.6-4.7c-1.8-0.4-2.8,0.6-4.1,2.6
		c0.1-0.8,0.3-1.6,0.3-2.5L121.9,45.7 M86.8,45.7c-0.5,5-1.5,10.1-2.2,15.1l-0.2,1.1h4.3c1.5-9.9,1.9-11.8,4.3-11.6
		c0.4-2,1.1-3.8,1.6-4.7c-1.8-0.4-2.8,0.6-4.1,2.6c0.1-0.8,0.3-1.6,0.3-2.5L86.8,45.7 M142.5,60.7c0-0.7,0.6-1.3,1.3-1.3
		c0.7,0,1.3,0.6,1.3,1.3c0,0.7-0.6,1.3-1.3,1.3C143.1,61.9,142.5,61.4,142.5,60.7z M143.8,61.6c0.5,0,1-0.4,1-1c0-0.5-0.4-1-1-1
		c-0.5,0-1,0.4-1,1C142.8,61.2,143.2,61.6,143.8,61.6z M143.6,61.2h-0.3v-1.1h0.5c0.1,0,0.2,0,0.3,0.1c0.1,0.1,0.1,0.2,0.1,0.3
		c0,0.1-0.1,0.2-0.2,0.3l0.2,0.5h-0.3l-0.2-0.4h-0.2L143.6,61.2L143.6,61.2z M143.6,60.6h0.1c0.1,0,0.1,0,0.2,0c0,0,0.1-0.1,0.1-0.1
		c0,0,0-0.1-0.1-0.1c0,0-0.1,0-0.2,0h-0.1L143.6,60.6L143.6,60.6z"/>
</g>
<g>
	<path class="st7" d="M8.8,0h146.6c4.8,0,8.8,3.9,8.8,8.8v85.6c0,4.8-3.9,8.8-8.8,8.8H8.8c-4.8,0-8.8-3.9-8.8-8.8V8.8
		C0,3.9,3.9,0,8.8,0z"/>
	<path class="st8" d="M60.9,73.1l7.3-42.8h11.7l-7.3,42.8H60.9z M114.7,31.2c-2.3-0.9-5.9-1.8-10.5-1.8c-11.5,0-19.7,5.8-19.7,14.1
		c-0.1,6.2,5.8,9.6,10.2,11.6c4.5,2.1,6.1,3.4,6.1,5.3c0,2.9-3.6,4.2-7,4.2c-4.7,0-7.2-0.6-11-2.2l-1.5-0.7l-1.6,9.6
		c2.7,1.2,7.8,2.2,13,2.3C105,73.6,113,67.9,113,59c0-4.9-3.1-8.6-9.8-11.6c-4.1-2-6.6-3.3-6.6-5.3c0-1.8,2.1-3.7,6.7-3.7
		c3.8-0.1,6.6,0.8,8.7,1.6l1,0.5L114.7,31.2 M144.8,30.3h-9c-2.8,0-4.9,0.8-6.1,3.6l-17.3,39.3h12.3c0,0,2-5.3,2.5-6.4
		c1.3,0,13.3,0,15,0c0.3,1.5,1.4,6.4,1.4,6.4h10.8L144.8,30.3L144.8,30.3z M130.5,58c1-2.5,4.7-12,4.7-12c-0.1,0.1,1-2.5,1.5-4.1
		l0.8,3.7c0,0,2.2,10.2,2.7,12.4L130.5,58L130.5,58z M51,30.3L39.5,59.5l-1.2-5.9c-2.1-6.8-8.8-14.3-16.2-18l10.5,37.5l12.4,0
		l18.4-42.8L51,30.3"/>
	<path class="st9" d="M28.9,30.3H10l-0.1,0.9c14.6,3.5,24.3,12.1,28.4,22.4l-4.1-19.7C33.5,31.2,31.4,30.4,28.9,30.3"/>
</g>
</svg>
